<svg width="200px" height="200px" viewBox="0 0 1024 1024" version="1.1" xmlns="http://www.w3.org/2000/svg">
  <path fill="currentColor" d="M935.253333 494.933333C849.066667 294.826667 686.933333 170.666667 512 170.666667s-337.066667 124.16-423.253333 324.266666a42.666667 42.666667 0 0 0 0 34.133334C174.933333 729.173333 337.066667 853.333333 512 853.333333s337.066667-124.16 423.253333-324.266666a42.666667 42.666667 0 0 0 0-34.133334zM512 768c-135.253333 0-263.253333-97.706667-337.066667-256C248.746667 353.706667 376.746667 256 512 256s263.253333 97.706667 337.066667 256c-73.813333 158.293333-201.813333 256-337.066667 256z m0-426.666667a170.666667 170.666667 0 1 0 170.666667 170.666667 170.666667 170.666667 0 0 0-170.666667-170.666667z m0 256a85.333333 85.333333 0 1 1 85.333333-85.333333 85.333333 85.333333 0 0 1-85.333333 85.333333z" />
</svg>