<svg width="200px" height="200px" viewBox="0 0 1024 1024" version="1.1" xmlns="http://www.w3.org/2000/svg">
  <path fill="currentColor" d="M512 128a384 384 0 1 1-382.421333 349.098667 32 32 0 1 1 63.744 5.76 318.293333 318.293333 0 0 0 92.416 255.402666A318.293333 318.293333 0 0 0 512 832 320 320 0 1 0 255.872 320.085333h117.589333a32 32 0 0 1 4.352 63.701334l-4.352 0.298666H181.333333a32 32 0 0 1-31.701333-27.648L149.333333 352.085333v-192a32 32 0 0 1 63.701334-4.352L213.333333 160.085333l-0.042666 110.549334A383.402667 383.402667 0 0 1 512 128z m-32 170.666667a32 32 0 0 1 31.701333 27.648L512 330.666667V512h96a32 32 0 0 1 4.352 63.701333l-4.352 0.298667h-128a32 32 0 0 1-31.701333-27.648l-0.298667-4.352v-213.333333a32 32 0 0 1 32-32z" />
</svg>